Coordinates
version=1
nRows=28
nColumns=34
inDegrees=no

Units are S.I. units (second, meters, Newtons, ...)
If the header above contains a line with 'inDegrees', this indicates whether rotational values are in degrees (yes) or radians (no).

endheader
time	pelvis_tilt	pelvis_list	pelvis_rotation	pelvis_tx	pelvis_ty	pelvis_tz	hip_flexion_r	hip_adduction_r	hip_rotation_r	knee_angle_r	ankle_angle_r	subtalar_angle_r	mtp_angle_r	hip_flexion_l	hip_adduction_l	hip_rotation_l	knee_angle_l	ankle_angle_l	subtalar_angle_l	mtp_angle_l	lumbar_extension	lumbar_bending	lumbar_rotation	arm_flex_r	arm_add_r	arm_rot_r	elbow_flex_r	pro_sup_r	arm_flex_l	arm_add_l	arm_rot_l	elbow_flex_l	pro_sup_l
2.04	-0.505085	-0.0154893	0.00107047	-0.186967	0.822142	-0.598106	1.08994	-0.169059	-0.0596088	1.05231	0.273644	-0.373355	-0.0993494	1.0967	-0.179541	0.072662	1.06073	0.280472	-0.286205	-0.0993494	0.15195	0.032095	-0.0369797	2.52867	-0.224562	0.897024	0.679655	1.24584	2.57266	-0.259794	1.0174	0.314354	1.2568
2.05	-0.485973	-0.0115989	0.000410944	-0.17831	0.847145	-0.597635	1.00776	-0.171273	-0.087264	0.946337	0.200869	-0.345138	-0.0993494	1.01112	-0.180433	0.0440939	0.950983	0.203172	-0.270514	-0.0993494	0.154829	0.0264447	-0.0360371	2.58385	-0.199648	0.90785	0.613344	1.2461	2.62258	-0.243857	1.0497	0.267877	1.25519
2.06	-0.464108	-0.0075188	0.000421468	-0.169553	0.873387	-0.597162	0.919673	-0.173265	-0.123336	0.830183	0.111473	-0.30489	-0.0993494	0.920068	-0.180628	0.00638847	0.830928	0.108756	-0.240832	-0.0993494	0.156247	0.0203753	-0.0347133	2.62647	-0.181145	0.918704	0.554224	1.24573	2.65934	-0.2318	1.0803	0.229704	1.25251
2.07	-0.441094	-0.00334307	0.00119511	-0.160875	0.900548	-0.596726	0.828786	-0.174736	-0.168693	0.705955	0.00535271	-0.252886	-0.0993494	0.82683	-0.179664	-0.0414434	0.702986	-0.00233758	-0.196824	-0.0993494	0.157816	0.0141812	-0.0334422	2.65792	-0.169981	0.934017	0.505419	1.24193	2.68463	-0.225216	1.11366	0.200533	1.24866
2.08	-0.41885	0.000910328	0.00278703	-0.152487	0.928229	-0.596361	0.739124	-0.17556	-0.223283	0.57733	-0.115506	-0.190914	-0.0993494	0.735518	-0.177131	-0.0995025	0.571134	-0.127544	-0.139951	-0.0993494	0.161256	0.00807004	-0.0327236	2.6802	-0.166406	0.957836	0.468772	1.23227	2.70074	-0.2253	1.15344	0.180407	1.24396
2.09	-0.399372	0.00526554	0.00520218	-0.144617	0.955976	-0.596098	0.655233	-0.175833	-0.28586	0.449468	-0.246683	-0.122382	-0.0993494	0.650684	-0.17278	-0.16661	0.440801	-0.261912	-0.0736845	-0.0993494	0.168132	0.00215355	-0.032987	2.69575	-0.170195	0.993265	0.44493	1.21526	2.7103	-0.232687	1.2018	0.168816	1.23919
2.1	-0.384427	0.00973752	0.00839664	-0.137489	0.983322	-0.595963	0.581575	-0.175872	-0.353868	0.328583	-0.381457	-0.0521063	-0.0993494	0.576744	-0.166611	-0.240039	0.318408	-0.398324	-0.00333081	-0.0993494	0.179593	-0.00352674	-0.0344996	2.70713	-0.180874	1.04191	0.43356	1.19082	2.71604	-0.247394	1.25901	0.164805	1.23552
2.11	-0.37527	0.0142838	0.0122809	-0.131296	1.00983	-0.595975	0.521832	-0.176154	-0.423522	0.221129	-0.511592	0.0142575	-0.0993494	0.517301	-0.158916	-0.315483	0.210524	-0.528376	0.0646135	-0.0993494	0.196129	-0.00895028	-0.0373292	2.71681	-0.19791	1.10349	0.43363	1.16037	2.72055	-0.268877	1.3235	0.167103	1.23429
2.12	-0.372412	0.0187772	0.0167134	-0.126176	1.03514	-0.596142	0.47826	-0.177165	-0.490135	0.13272	-0.628774	0.0710713	-0.0993494	0.474496	-0.150249	-0.387395	0.122715	-0.643866	0.123489	-0.0993494	0.217419	-0.0140674	-0.0413519	2.72693	-0.220868	1.17576	0.443726	1.12656	2.72604	-0.296185	1.39231	0.174271	1.23652
2.13	-0.375512	0.0230142	0.0214915	-0.12219	1.059	-0.596459	0.451251	-0.17922	-0.548707	0.0669831	-0.726371	0.113682	-0.0993494	0.448545	-0.141317	-0.449751	0.0583562	-0.738571	0.167693	-0.0993494	0.2423	-0.0187745	-0.04629	2.73911	-0.249484	1.25488	0.462334	1.09277	2.73428	-0.328185	1.46153	0.184858	1.24275
2.14	-0.383403	0.0267594	0.0263621	-0.11932	1.08131	-0.596903	0.439235	-0.182328	-0.594808	0.0247526	-0.800837	0.139359	-0.0993494	0.437635	-0.132805	-0.497188	0.0178202	-0.809571	0.193824	-0.0993494	0.268874	-0.0229306	-0.0517649	2.75449	-0.283681	1.33608	0.488054	1.06238	2.74647	-0.363754	1.52719	0.197514	1.25288
2.15	-0.394268	0.029806	0.0310572	-0.117474	1.1021	-0.597435	0.439026	-0.186194	-0.625712	0.00401578	-0.852077	0.148091	-0.0993494	0.438345	-0.125266	-0.526362	-0.00135918	-0.857421	0.201563	-0.0993494	0.294755	-0.0264014	-0.0573272	2.77383	-0.323512	1.41507	0.519639	1.03785	2.76328	-0.401908	1.58623	0.211001	1.26643
2.16	-0.405932	0.0320234	0.0353272	-0.116509	1.12156	-0.59801	0.446471	-0.190316	-0.641069	0.000537253	-0.882767	0.142599	-0.0993494	0.446343	-0.119066	-0.536722	-0.00373551	-0.885265	0.193667	-0.0993494	0.317436	-0.0291017	-0.0624838	2.79766	-0.369055	1.48878	0.555971	1.02048	2.78471	-0.441868	1.63681	0.224352	1.28276
2.17	-0.416243	0.0333752	0.0389634	-0.116245	1.13993	-0.598576	0.457171	-0.194074	-0.642892	0.00872774	-0.897179	0.127523	-0.0993494	0.457113	-0.11435	-0.530556	0.00497754	-0.897589	0.175075	-0.0993494	0.334722	-0.0310183	-0.0667148	2.82653	-0.420245	1.55583	0.595971	1.0105	2.81017	-0.483072	1.67823	0.236998	1.30129
2.18	-0.423441	0.0339201	0.0418216	-0.116478	1.15748	-0.599083	0.467142	-0.196814	-0.634974	0.0225537	-0.900098	0.107991	-0.0993494	0.466616	-0.111032	-0.512376	0.0188204	-0.899208	0.151389	-0.0993494	0.345146	-0.0322221	-0.069468	2.8612	-0.476695	1.61681	0.638502	1.00714	2.83848	-0.52512	1.71066	0.24874	1.32165
2.19	-0.426477	0.033803	0.0438509	-0.117006	1.17444	-0.599491	0.473354	-0.197978	-0.621947	0.0364521	-0.896054	0.0881349	-0.0993494	0.471842	-0.108819	-0.487817	0.0324645	-0.894549	0.127324	-0.0993494	0.348254	-0.0328821	-0.0701153	2.90304	-0.537576	1.6746	0.682394	1.00842	2.8679	-0.567655	1.73501	0.259525	1.34393
2.2	-0.425152	0.0332395	0.0451168	-0.117643	1.19093	-0.599776	0.474173	-0.197316	-0.608509	0.0463328	-0.888799	0.0703967	-0.0993494	0.471224	-0.107327	-0.462584	0.0420915	-0.887193	0.105943	-0.0993494	0.344664	-0.0332748	-0.0679402	2.95413	-0.601564	1.73406	0.7266	1.01146	2.89635	-0.610242	1.75262	0.269259	1.36857
2.21	-0.420092	0.032487	0.0458012	-0.118242	1.207	-0.599933	0.469519	-0.19503	-0.598655	0.0502198	-0.881054	0.0556359	-0.0993494	0.464781	-0.106205	-0.441492	0.0459179	-0.879675	0.0887389	-0.0993494	0.335921	-0.0337635	-0.0622074	3.01713	-0.666839	1.8012	0.77036	1.01314	2.92154	-0.652344	1.76517	0.277752	1.39592
2.22	-0.412557	0.0318019	0.0461695	-0.118703	1.22259	-0.599969	0.460678	-0.191735	-0.594977	0.0482769	-0.874498	0.0437135	-0.0993494	0.453912	-0.10523	-0.427748	0.0441736	-0.873504	0.0761594	-0.0993494	0.324172	-0.0347291	-0.0523322	3.09483	-0.731106	1.88206	0.813167	1.01086	2.94138	-0.693427	1.77451	0.284807	1.42592
2.23	-0.404122	0.0313925	0.0465107	-0.11897	1.23755	-0.599896	0.449799	-0.188278	-0.598197	0.0422487	-0.86991	0.0341369	-0.0993494	0.440896	-0.104338	-0.422549	0.0385656	-0.86933	0.0681359	-0.0993494	0.311742	-0.0364694	-0.0381021	3.18925	-0.791675	1.98158	0.854467	1.00346	2.95427	-0.733146	1.78255	0.290398	1.45789
2.24	-0.396311	0.0313816	0.0470732	-0.11903	1.25174	-0.599725	0.439219	-0.185468	-0.607081	0.0345619	-0.867402	0.0264629	-0.0993494	0.428207	-0.103591	-0.425062	0.0314483	-0.86718	0.0643654	-0.0993494	0.30069	-0.039107	-0.0198411	3.30081	-0.845653	2.10268	0.893268	0.991914	2.95935	-0.771508	1.79106	0.294796	1.49068
2.25	-0.390275	0.0317891	0.0480218	-0.118902	1.265	-0.599461	0.430832	-0.183863	-0.618899	0.0274596	-0.866662	0.020439	-0.0993494	0.417886	-0.103121	-0.432863	0.0250242	-0.866702	0.064385	-0.0993494	0.292445	-0.0425477	0.00154105	3.42765	-0.890265	2.2455	0.927988	0.97916	2.95651	-0.808938	1.80154	0.298555	1.52268
2.26	-0.386604	0.0325408	0.0494254	-0.118625	1.27725	-0.599109	0.425688	-0.183658	-0.630259	0.022449	-0.867181	0.0159442	-0.0993494	0.411133	-0.103057	-0.442684	0.0208097	-0.867378	0.0675329	-0.0993494	0.28762	-0.0465041	0.0247152	3.56572	-0.923251	2.40734	0.956756	0.968941	2.94611	-0.846189	1.815	0.302319	1.55218
2.27	-0.385306	0.0334963	0.0512774	-0.118249	1.28842	-0.598675	0.423904	-0.184706	-0.638081	0.0200943	-0.868416	0.0128494	-0.0993494	0.408196	-0.103468	-0.451279	0.0194154	-0.868679	0.0729206	-0.0993494	0.286035	-0.0505726	0.0482517	3.70953	-0.943189	2.58313	0.978029	0.964362	2.92854	-0.88416	1.83144	0.306553	1.5781
2.28	-0.385936	0.0344859	0.0535335	-0.117828	1.29851	-0.598175	0.424833	-0.186624	-0.640365	0.020084	-0.869897	0.0108624	-0.0993494	0.408525	-0.104324	-0.456121	0.0205773	-0.870163	0.0794394	-0.0993494	0.286918	-0.0543214	0.0708697	3.85307	-0.949661	2.76617	0.991065	0.967346	2.90398	-0.923738	1.84973	0.311409	1.60023
2.29	-0.387803	0.0353532	0.0561482	-0.117404	1.30754	-0.597638	0.427391	-0.188959	-0.636629	0.0215231	-0.871284	0.00946259	-0.0993494	0.411083	-0.105497	-0.455835	0.0233951	-0.871517	0.0858776	-0.0993494	0.289215	-0.0573862	0.0916579	3.99088	-0.943197	2.94937	0.996071	0.978775	2.87245	-0.965628	1.86783	0.316657	1.61926
2.3	-0.390189	0.0359933	0.0590953	-0.117015	1.31557	-0.597102	0.430427	-0.191345	-0.627928	0.0233411	-0.872377	0.00797308	-0.0993494	0.414712	-0.106789	-0.450337	0.0267172	-0.872563	0.0911407	-0.0993494	0.291895	-0.0595427	0.110161	4.11875	-0.925097	3.12642	0.993986	0.998835	2.83426	-1.01022	1.88356	0.321672	1.63662
2.31	-0.392515	0.036367	0.0623681	-0.116684	1.32262	-0.596608	0.433013	-0.193591	-0.616459	0.024642	-0.873094	0.0057436	-0.0993494	0.418431	-0.107992	-0.440674	0.0295144	-0.873237	0.0944913	-0.0993494	0.294172	-0.0607318	0.126295	4.23404	-0.897262	3.2925	0.986125	1.02711	2.79096	-1.05752	1.89598	0.325572	1.6541
